<?xml version="1.0" standalone="no"?><!DOCTYPE svg PUBLIC "-//W3C//DTD SVG 1.1//EN" "http://www.w3.org/Graphics/SVG/1.1/DTD/svg11.dtd"><svg t="1578470264035" class="icon" viewBox="0 0 1024 1024" version="1.1" xmlns="http://www.w3.org/2000/svg" p-id="601" xmlns:xlink="http://www.w3.org/1999/xlink" width="200" height="200"><defs><style type="text/css"></style></defs><path d="M973.542 72.736L951.284 50.48l48.272-48.272 22.26 22.26z" fill="#232323" p-id="602"></path><path d="M142.596 881.402v106.654l98.634-91.026v-114.262H126.968l-91.026 98.634z" fill="#FAEDD6" p-id="603"></path><path d="M786.234 270.96c-71.304-71.304-186.912-71.304-258.216 0l-19.366 19.366-12.91-12.91c-71.304-71.304-186.912-71.306-258.216 0-71.304 71.304-71.304 186.912 0 258.216L508.654 806.76l277.582-277.582c71.3-71.306 71.3-186.912-0.002-258.218z" fill="#FA004B" p-id="604"></path><path d="M297.758 748.546l-22.256-22.256 32.182-32.182 22.256 22.256z" fill="#36C9A3" p-id="605"></path><path d="M1023.998 96.534H992.52V31.478h-65.056V0h96.534z" fill="#232323" p-id="606"></path><path d="M1023.998 96.534H992.52V31.478h-65.056V0h96.534z" fill="#FAEDD6" p-id="607"></path><path d="M791.754 254.502L909.2 137.058 886.94 114.8l-120.07 120.07c-76.996-51.182-182.146-42.874-249.984 24.962l-8.234 8.234-1.782-1.782c-77.33-77.328-203.15-77.326-280.474 0-37.46 37.46-58.088 87.262-58.088 140.238s20.628 102.78 58.088 140.238l114.292 114.29-16.944 16.944 22.26 22.258 16.942-16.942 145.706 145.706 11.13-11.128 277.58-277.582c37.46-37.458 58.088-87.262 58.088-140.238s-20.628-102.778-58.088-140.238a194.998 194.998 0 0 0-5.608-5.328z m-16.658 263.552L508.65 784.5l-123.446-123.446 102.536-102.536 13.006 13.006 22.26-22.258-48.276-48.274-22.26 22.258 13.01 13.01-102.536 102.536-114.29-114.29c-31.512-31.516-48.87-73.414-48.87-117.982s17.358-86.466 48.87-117.98c32.526-32.526 75.25-48.79 117.978-48.79s85.452 16.264 117.978 48.79l24.042 24.042 30.494-30.494c65.054-65.056 170.906-65.054 235.958 0 31.514 31.514 48.87 73.412 48.87 117.978-0.002 44.566-17.358 86.464-48.878 117.984zM259.378 742.36l-27.816 27.816H120.076L0 900.288h101.45l-19.076 19.076 22.26 22.258 19.076-19.076v101.452l130.112-120.076v-111.486l27.816-27.816-22.26-22.26z m-187.494 126.45l61.976-67.154h66.222l-67.154 67.154H71.884z m150.458 21.328l-67.154 61.976v-61.044l67.154-67.154v66.222z" fill="#232323" p-id="608"></path><path d="M768.988 384.04h-31.478c0-35.676-28.296-65.366-63.97-65.366v-31.478c52.46-0.002 95.448 42.28 95.448 96.844z" fill="#FFFFFF" p-id="609"></path><path d="M56.312 989.868l-22.258-22.26 32.182-32.18 22.26 22.26zM925.25 120.992l-22.258-22.26 32.18-32.18 22.26 22.258z" fill="#36C9A3" p-id="610"></path></svg>